<svg width="1245" height="1960" viewBox="0 0 1245 1960" fill="none" xmlns="http://www.w3.org/2000/svg">
<path d="M631.134 1C637.633 407.591 296.928 522.502 130.621 613.098C-31.1011 701.194 -22.4677 881.881 168.012 891.775C178.939 892.343 189.831 889.953 199.87 885.602L773.128 637.142L916.622 613.098C1303.41 547.981 1334.25 904.82 1010.11 995.095C1006.21 996.181 1002.1 996.939 998.071 997.372L352.644 1066.74C-51.8401 1107.25 -30.3408 1258.78 83.6548 1287.29L877.148 1407.9C881.126 1408.51 885.324 1408.8 889.347 1408.84C1216.42 1411.84 1161.39 1651.37 1047.62 1651.37L291.147 1667.37C-49.3401 1646.37 -51.3402 1933.93 184.651 1933.93H530C538.167 1933.93 241.348 1937.57 526.5 1933.93C241.348 1937.57 643.815 1933.17 259 1947L96.8627 1917.42" stroke="#FED7D2" stroke-width="24"/>
</svg>
